<svg width="200" height="72" viewBox="0 0 200 72" fill="none" xmlns="http://www.w3.org/2000/svg">
<g clip-path="url(#clip0_26_9)">
<path d="M102.719 57.2868L105.865 53.6196H107.492L103.84 57.7806L107.514 62.8113H105.881L102.97 58.7217L102.719 59.0073V62.8113H101.5V53.6196H102.719V57.2868Z" fill="black"/>
<path d="M108.375 57.0127H109.558V57.5487C109.97 57.0846 110.434 56.8521 110.951 56.8521C111.543 56.8521 112.006 57.0648 112.337 57.4892C112.623 57.8502 112.767 58.4397 112.767 59.2573V62.8114H111.584V59.5732C111.584 59.002 111.514 58.6068 111.374 58.3886C111.238 58.1665 110.99 58.0549 110.631 58.0549C110.241 58.0549 109.963 58.2022 109.799 58.4957C109.639 58.7853 109.558 59.2915 109.558 60.0135V62.8114H108.375V57.0127Z" fill="black"/>
<path d="M114.016 59.8702C114.016 59.0327 114.279 58.3202 114.805 57.7331C115.333 57.1456 115.974 56.8521 116.731 56.8521C117.492 56.8521 118.138 57.1476 118.668 57.7391C119.192 58.3306 119.453 59.057 119.453 59.9178C119.453 60.7874 119.189 61.5153 118.663 62.1029C118.133 62.6865 117.482 62.978 116.711 62.978C115.946 62.978 115.306 62.6805 114.79 62.085C114.274 61.4975 114.016 60.7592 114.016 59.8702ZM115.219 59.8945C115.219 60.4741 115.355 60.9322 115.627 61.2694C115.907 61.611 116.275 61.7811 116.732 61.7811C117.193 61.7811 117.56 61.6125 117.836 61.2748C118.111 60.9377 118.25 60.4875 118.25 59.9237C118.25 59.3599 118.112 58.9097 117.836 58.5726C117.557 58.2309 117.189 58.0604 116.732 58.0604C116.282 58.0604 115.918 58.2309 115.638 58.5726C115.359 58.9137 115.219 59.3545 115.219 59.8945Z" fill="black"/>
<path d="M121.129 57.0129L122.463 60.3231L123.902 56.4834L125.352 60.3231L126.671 57.0129H127.99L125.32 63.246L123.902 59.5134L122.469 63.246L119.805 57.0129H121.129Z" fill="black"/>
<path d="M130.061 52.7554V62.8103H128.883V52.7554H130.061Z" fill="black"/>
<path d="M136.196 60.2281H132.543C132.574 60.7041 132.71 61.0834 132.951 61.3651C133.192 61.6427 133.5 61.7816 133.877 61.7816C134.17 61.7816 134.412 61.7027 134.605 61.5436C134.793 61.3849 135.008 61.0909 135.248 60.6625L136.243 61.2937C136.089 61.5912 135.927 61.846 135.756 62.0582C135.585 62.271 135.402 62.445 135.206 62.5823C135.011 62.7192 134.8 62.8193 134.573 62.8828C134.346 62.9463 134.1 62.978 133.835 62.978C133.074 62.978 132.463 62.7003 132.003 62.1445C131.543 61.5847 131.312 60.843 131.312 59.9178C131.312 59.0015 131.536 58.2592 131.982 57.6915C132.432 57.1317 133.029 56.8521 133.772 56.8521C134.523 56.8521 135.115 57.1238 135.552 57.6677C135.985 58.2076 136.201 58.9558 136.201 59.9123L136.196 60.2281ZM134.986 59.1329C134.822 58.4184 134.427 58.0609 133.798 58.0609C133.655 58.0609 133.521 58.0857 133.396 58.1353C133.27 58.1848 133.156 58.2562 133.053 58.3494C132.95 58.4427 132.862 58.5552 132.789 58.6861C132.716 58.817 132.659 58.9658 132.622 59.1324H134.986V59.1329Z" fill="black"/>
<path d="M141.24 52.7554H142.423V62.8103H141.24V62.2034C140.777 62.719 140.251 62.9769 139.665 62.9769C138.967 62.9769 138.388 62.6873 137.927 62.1077C137.47 61.5167 137.242 60.7779 137.242 59.8933C137.242 59.0281 137.47 58.3057 137.927 57.726C138.381 57.1425 138.951 56.8509 139.639 56.8509C140.236 56.8509 140.77 57.1286 141.24 57.6844V52.7554H141.24ZM138.445 59.8938C138.445 60.4491 138.576 60.9018 138.838 61.2509C139.107 61.6039 139.445 61.7804 139.853 61.7804C140.289 61.7804 140.641 61.6099 140.91 61.2687C141.179 60.9157 141.313 60.467 141.313 59.9231C141.313 59.3791 141.179 58.9309 140.91 58.5774C140.641 58.2323 140.293 58.0597 139.864 58.0597C139.459 58.0597 139.121 58.2348 138.849 58.5838C138.58 58.9369 138.445 59.3737 138.445 59.8938Z" fill="black"/>
<path d="M148.842 62.6736C148.842 62.9478 148.834 63.1887 148.819 63.397C148.803 63.6052 148.781 63.7887 148.753 63.9478C148.669 64.3842 148.505 64.7595 148.261 65.0734C147.8 65.6763 147.167 65.9783 146.361 65.9783C145.681 65.9783 145.121 65.77 144.681 65.353C144.228 64.9246 143.966 64.3311 143.896 63.573H145.079C145.125 63.8591 145.199 64.0792 145.304 64.2339C145.548 64.5949 145.904 64.7759 146.372 64.7759C147.234 64.7759 147.665 64.1744 147.665 62.9716V62.1624C147.197 62.7063 146.658 62.978 146.048 62.978C145.353 62.978 144.785 62.6919 144.341 62.1207C143.895 61.5411 143.672 60.8172 143.672 59.948C143.672 59.1026 143.879 58.3842 144.294 57.7926C144.741 57.1659 145.331 56.8521 146.063 56.8521C146.705 56.8521 147.239 57.1238 147.665 57.6677V57.0127H148.843V62.6736H148.842ZM147.711 59.9232C147.711 59.3595 147.579 58.9092 147.313 58.5721C147.045 58.2265 146.702 58.0539 146.283 58.0539C145.836 58.0539 145.484 58.2423 145.226 58.6197C144.992 58.9568 144.875 59.3937 144.875 59.9297C144.875 60.4572 144.992 60.8901 145.226 61.2272C145.48 61.5961 145.833 61.7806 146.283 61.7806C146.733 61.7806 147.089 61.5941 147.351 61.2208C147.591 60.8841 147.711 60.4513 147.711 59.9232Z" fill="black"/>
<path d="M154.969 60.2281H151.316C151.347 60.7041 151.483 61.0834 151.724 61.3651C151.965 61.6427 152.274 61.7816 152.65 61.7816C152.943 61.7816 153.186 61.7027 153.378 61.5436C153.567 61.3849 153.781 61.0909 154.021 60.6625L155.016 61.2937C154.863 61.5912 154.7 61.846 154.529 62.0582C154.359 62.271 154.176 62.445 153.98 62.5823C153.785 62.7192 153.574 62.8193 153.347 62.8828C153.119 62.9463 152.873 62.978 152.609 62.978C151.848 62.978 151.237 62.7003 150.777 62.1445C150.316 61.5847 150.086 60.843 150.086 59.9178C150.086 59.0015 150.309 58.2592 150.755 57.6915C151.205 57.1317 151.802 56.8521 152.545 56.8521C153.296 56.8521 153.889 57.1238 154.325 57.6677C154.758 58.2076 154.974 58.9558 154.974 59.9123L154.969 60.2281ZM153.76 59.1329C153.596 58.4184 153.2 58.0609 152.572 58.0609C152.429 58.0609 152.295 58.0857 152.169 58.1353C152.044 58.1848 151.929 58.2562 151.826 58.3494C151.723 58.4427 151.635 58.5552 151.562 58.6861C151.489 58.817 151.432 58.9658 151.395 59.1324H153.76V59.1329Z" fill="black"/>
<path d="M159.383 54.6005C159.383 54.366 159.458 54.1637 159.607 53.9932C159.758 53.8226 159.937 53.7373 160.147 53.7373C160.36 53.7373 160.541 53.8231 160.691 53.9932C160.841 54.1602 160.916 54.3645 160.916 54.6065C160.916 54.8485 160.841 55.0552 160.691 55.2253C160.545 55.3959 160.365 55.4816 160.152 55.4816C159.939 55.4816 159.758 55.3959 159.607 55.2253C159.457 55.0547 159.383 54.8465 159.383 54.6005ZM160.738 57.0113V62.81H159.56V57.0113H160.738Z" fill="black"/>
<path d="M165.198 58.0009L164.225 58.5904C164.071 58.2329 163.881 58.0544 163.654 58.0544C163.546 58.0544 163.453 58.0956 163.377 58.1764C163.3 58.2577 163.262 58.3623 163.262 58.4893C163.262 58.7114 163.489 58.9316 163.942 59.1502C164.567 59.4556 164.987 59.7373 165.204 59.9951C165.42 60.2534 165.528 60.6005 165.528 61.0368C165.528 61.5966 165.347 62.0647 164.984 62.442C164.632 62.7995 164.206 62.9775 163.707 62.9775C162.852 62.9775 162.246 62.5035 161.891 61.5545L162.895 61.0249C163.035 61.3026 163.141 61.4796 163.215 61.5545C163.357 61.7057 163.529 61.7806 163.728 61.7806C164.126 61.7806 164.324 61.5748 164.324 61.1618C164.324 60.9233 164.171 60.7012 163.864 60.4949C163.745 60.4275 163.626 60.3625 163.508 60.2986C163.389 60.2351 163.269 60.1696 163.146 60.1017C162.805 59.9113 162.564 59.7209 162.425 59.5305C162.247 59.2886 162.158 58.9772 162.158 58.5959C162.158 58.0921 162.31 57.6751 162.613 57.3459C162.924 57.0167 163.301 56.8521 163.744 56.8521C164.395 56.8521 164.88 57.2353 165.198 58.0009Z" fill="black"/>
<path d="M171.336 59.0782V62.8108H170.117V53.6196H171.499C172.176 53.6196 172.687 53.6732 173.032 53.7803C173.382 53.8874 173.688 54.0897 173.953 54.3872C174.417 54.9033 174.649 55.5543 174.649 56.3397C174.649 57.1812 174.401 57.8481 173.906 58.3404C173.41 58.8328 172.742 59.0787 171.902 59.0787H171.336V59.0782ZM171.336 57.7925H171.792C172.912 57.7925 173.472 57.3026 173.472 56.3219C173.472 55.3734 172.894 54.8994 171.739 54.8994H171.336V57.7925Z" fill="black"/>
<path d="M175.125 59.8702C175.125 59.0327 175.388 58.3202 175.915 57.7331C176.442 57.1456 177.084 56.8521 177.841 56.8521C178.601 56.8521 179.247 57.1476 179.777 57.7391C180.301 58.3306 180.563 59.057 180.563 59.9178C180.563 60.7874 180.299 61.5153 179.773 62.1029C179.242 62.6865 178.591 62.978 177.82 62.978C177.056 62.978 176.416 62.6805 175.899 62.085C175.383 61.4975 175.125 60.7592 175.125 59.8702ZM176.329 59.8945C176.329 60.4741 176.465 60.9322 176.737 61.2694C177.016 61.611 177.384 61.7811 177.841 61.7811C178.302 61.7811 178.67 61.6125 178.946 61.2748C179.221 60.9377 179.359 60.4875 179.359 59.9237C179.359 59.3599 179.221 58.9097 178.946 58.5726C178.666 58.2309 178.298 58.0604 177.841 58.0604C177.391 58.0604 177.027 58.2309 176.747 58.5726C176.468 58.9137 176.329 59.3545 176.329 59.8945Z" fill="black"/>
<path d="M182.246 57.0129L183.58 60.3231L185.019 56.4834L186.469 60.3231L187.788 57.0129H189.107L186.437 63.246L185.019 59.5134L183.586 63.246L180.922 57.0129H182.246Z" fill="black"/>
<path d="M194.383 60.2281H190.73C190.761 60.7041 190.897 61.0834 191.138 61.3651C191.379 61.6427 191.687 61.7816 192.064 61.7816C192.357 61.7816 192.599 61.7027 192.792 61.5436C192.98 61.3849 193.195 61.0909 193.435 60.6625L194.43 61.2937C194.276 61.5912 194.114 61.846 193.943 62.0582C193.772 62.271 193.589 62.445 193.394 62.5823C193.198 62.7192 192.987 62.8193 192.761 62.8828C192.533 62.9463 192.287 62.978 192.023 62.978C191.262 62.978 190.651 62.7003 190.191 62.1445C189.73 61.5847 189.5 60.843 189.5 59.9178C189.5 59.0015 189.723 58.2592 190.17 57.6915C190.619 57.1317 191.216 56.8521 191.959 56.8521C192.71 56.8521 193.303 57.1238 193.739 57.6677C194.172 58.2076 194.388 58.9558 194.388 59.9123L194.383 60.2281ZM193.173 59.1329C193.01 58.4184 192.614 58.0609 191.986 58.0609C191.842 58.0609 191.708 58.0857 191.583 58.1353C191.457 58.1848 191.343 58.2562 191.24 58.3494C191.137 58.4427 191.049 58.5552 190.976 58.6861C190.902 58.817 190.846 58.9658 190.809 59.1324H193.173V59.1329Z" fill="black"/>
<path d="M195.672 57.0127H196.85V57.5308C197.066 57.2725 197.258 57.096 197.425 57.0008C197.596 56.9016 197.799 56.8521 198.033 56.8521C198.343 56.8521 198.667 56.9671 199.006 57.1971L198.467 58.4238C198.244 58.2414 198.025 58.1496 197.812 58.1496C197.171 58.1496 196.85 58.7015 196.85 59.8047V62.8114H195.672V57.0127Z" fill="black"/>
<path d="M90.2033 44.3886H82.7719L81.52 50.9117H73.7656L82.0854 18.9849H91.0512L99.3709 50.9117H91.4548L90.2033 44.3886ZM89.032 38.3251L86.4881 25.0493L83.9432 38.3251H89.032Z" fill="#003194"/>
<path d="M108.252 50.9132H100.781V18.9868H108.252V50.9132ZM116.168 33.2275L125.336 50.9137H116.774L108.495 33.9167L116.815 18.9868H124.61L116.168 33.2275Z" fill="#003194"/>
<path d="M146.171 22.3846L142.819 26.8868C140.88 25.1409 138.943 24.2683 136.721 24.2683C134.54 24.2683 133.329 25.2332 133.329 26.9785C133.329 28.8165 134.379 29.4596 138.579 31.021C144.112 32.9964 146.899 35.7065 146.899 41.4948C146.899 47.5127 142.618 51.7391 135.429 51.7391C130.3 51.7391 126.786 49.6259 124.484 47.0997L128.16 42.4597C130.219 44.389 132.44 45.5834 135.146 45.5834C137.731 45.5834 139.145 44.2055 139.145 42.1379C139.145 40.0247 138.175 39.1064 134.298 37.7742C127.756 35.4309 125.656 32.3533 125.656 27.6677C125.656 21.8333 130.139 18.1582 136.156 18.1582C140.518 18.1582 143.668 19.6744 146.171 22.3846Z" fill="#003194"/>
<path d="M164.785 37.6374H157.354V50.9132H149.883V18.9868H157.354V31.0682H164.785V18.9868H172.256V50.9137H164.785V37.6374Z" fill="#003194"/>
<path d="M190.071 44.3886H182.639L181.387 50.9117H173.633L181.953 18.9849H190.918L199.238 50.9117H191.322L190.071 44.3886ZM188.899 38.3251L186.355 25.0493L183.81 38.3251H188.899Z" fill="#003194"/>
<path d="M19.9865 16.5757C22.1342 16.5757 24.1808 16.5757 26.2278 16.5757C27.4178 16.5757 28.6083 16.6 29.797 16.5638C30.2595 16.5499 30.556 16.7061 30.8506 17.1246C34.0301 21.6441 37.2293 26.1457 40.4236 30.6513C40.7231 31.0737 41.0261 31.4937 41.4406 32.0723C41.4406 26.8255 41.4406 21.7646 41.4406 16.6402C44.8747 16.6402 48.2273 16.6402 51.6343 16.6402C51.6343 28.2718 51.6343 39.8851 51.6343 51.5683C51.3976 51.5861 51.1867 51.6149 50.9761 51.6154C48.3541 51.6184 45.7317 51.607 43.1097 51.6278C42.6721 51.6313 42.3918 51.48 42.115 51.0864C38.9372 46.5654 35.742 42.0598 32.5507 37.5512C28.5495 31.8988 24.553 26.2419 20.5379 20.6019C20.1421 20.046 19.9241 19.4976 19.9764 18.7722C20.0257 18.0796 19.9865 17.3785 19.9865 16.5757Z" fill="#EF6A28"/>
<path d="M20.14 25.56C21.0907 26.8967 22.0383 28.236 22.9921 29.5692C24.2371 31.3096 25.4955 33.0371 26.7322 34.7848C27.791 36.2813 28.8411 37.7866 29.8607 39.3177C30.0181 39.5542 30.0848 39.9712 30.0338 40.2697C28.9144 46.7998 25.3962 50.7094 19.6016 51.8597C16.2211 52.531 12.8441 52.5097 9.50421 51.5572C4.2624 50.0623 1.03754 45.9831 0.280803 39.8869C0.112106 38.5269 0.0218727 37.1435 0.0157699 35.7701C-0.0116924 29.6783 0.0048722 23.5861 0.00574402 17.4938C0.00574402 17.2261 0.00574402 16.9578 0.00574402 16.6475C3.48648 16.6475 6.89224 16.6475 10.3861 16.6475C10.3861 16.9336 10.3861 17.1988 10.3861 17.4646C10.3865 23.5315 10.3629 29.599 10.4092 35.6654C10.4174 36.7711 10.5901 37.92 10.9 38.9672C11.3747 40.5712 12.4379 41.6213 13.9309 41.8534C14.8511 41.9967 15.8323 42.0096 16.739 41.8073C18.528 41.4086 19.7346 39.6797 19.8688 37.5942C19.9172 36.845 19.9486 36.0943 19.9647 35.3436" fill="#003194"/>
<path d="M77.9362 50.7269L64.2212 35.1256L77.9362 19.5244H66.3023L52.5859 35.1256L66.3023 50.7269H77.9362Z" fill="#003194"/>
<path d="M45.5908 13.6039C48.8209 13.6039 51.4394 10.6254 51.4394 6.95135C51.4394 3.27727 48.8209 0.298828 45.5908 0.298828C42.3607 0.298828 39.7422 3.27727 39.7422 6.95135C39.7422 10.6254 42.3607 13.6039 45.5908 13.6039Z" fill="#0E348E"/>
<path d="M36.4047 10.6975C36.8389 11.0352 40.8881 9.83626 46.0048 7.47761C51.1215 5.11895 54.5852 2.61502 54.9339 2.15638C55.4444 1.48553 51.6079 3.02755 51.6079 3.02755C51.6079 3.02755 53.6654 2.32 52.9928 2.9264C52.3202 3.5328 39.5803 9.84915 38.7813 9.29333C37.9823 8.73751 39.7482 8.18168 39.7482 8.18168C39.7482 8.18168 35.4152 9.92898 36.4047 10.6975Z" fill="#EF6A28"/>
</g>
<defs>
<clipPath id="clip0_26_9">
<rect width="200" height="71.367" fill="white" transform="translate(0 0.298828)"/>
</clipPath>
</defs>
</svg>
