<svg width="14" height="15" viewBox="0 0 14 15" fill="none" xmlns="http://www.w3.org/2000/svg">
<path d="M13.5329 12.92L11.0529 10.472C11.7035 9.66133 12.1142 8.73867 12.2849 7.704C12.4555 6.712 12.3755 5.736 12.0449 4.776C11.7142 3.79467 11.1595 2.95733 10.3809 2.264C9.6022 1.56 8.70086 1.09067 7.67686 0.855999C6.69553 0.642666 5.71953 0.669333 4.74886 0.936C3.7462 1.224 2.87153 1.74133 2.12486 2.488C1.38886 3.224 0.876864 4.09333 0.588864 5.096C0.322197 6.06667 0.29553 7.04267 0.508864 8.024C0.74353 9.048 1.20753 9.94933 1.90086 10.728C2.60486 11.5067 3.44753 12.0613 4.42886 12.392C5.38886 12.7227 6.36486 12.8027 7.35686 12.632C8.39153 12.4613 9.3142 12.0507 10.1249 11.4L12.5729 13.848C12.7009 13.9867 12.8609 14.056 13.0529 14.056C13.2449 14.056 13.4049 13.9867 13.5329 13.848C13.6609 13.72 13.7249 13.5653 13.7249 13.384C13.7249 13.2027 13.6609 13.048 13.5329 12.92ZM6.38086 11.4C5.5382 11.4 4.7542 11.1867 4.02886 10.76C3.32486 10.344 2.76486 9.784 2.34886 9.08C1.9222 8.35467 1.70886 7.57067 1.70886 6.728C1.70886 5.88533 1.9222 5.10133 2.34886 4.376C2.76486 3.672 3.32486 3.112 4.02886 2.696C4.7542 2.26933 5.5382 2.056 6.38086 2.056C7.22353 2.056 8.00753 2.26933 8.73286 2.696C9.43686 3.112 9.99686 3.672 10.4129 4.376C10.8395 5.10133 11.0529 5.88533 11.0529 6.728C11.0529 7.57067 10.8395 8.35467 10.4129 9.08C9.99686 9.784 9.43686 10.344 8.73286 10.76C8.00753 11.1867 7.22353 11.4 6.38086 11.4Z" fill="black"/>
</svg>
