<svg width="17" height="6" viewBox="0 0 17 6" fill="none" xmlns="http://www.w3.org/2000/svg">
<path d="M0.78125 0.75C0.582338 0.75 0.391572 0.829018 0.25092 0.96967C0.110268 1.11032 0.03125 1.30109 0.03125 1.5C0.03125 1.69891 0.110268 1.88968 0.25092 2.03033C0.391572 2.17098 0.582338 2.25 0.78125 2.25H15.2812C15.4802 2.25 15.6709 2.17098 15.8116 2.03033C15.9522 1.88968 16.0312 1.69891 16.0312 1.5C16.0312 1.30109 15.9522 1.11032 15.8116 0.96967C15.6709 0.829018 15.4802 0.75 15.2812 0.75H0.78125ZM0.78125 3.75C0.582338 3.75 0.391572 3.82902 0.25092 3.96967C0.110268 4.11032 0.03125 4.30109 0.03125 4.5C0.03125 4.69891 0.110268 4.88968 0.25092 5.03033C0.391572 5.17098 0.582338 5.25 0.78125 5.25H15.2812C15.4802 5.25 15.6709 5.17098 15.8116 5.03033C15.9522 4.88968 16.0312 4.69891 16.0312 4.5C16.0312 4.30109 15.9522 4.11032 15.8116 3.96967C15.6709 3.82902 15.4802 3.75 15.2812 3.75H0.78125Z" fill="#556EE6"/>
</svg>
