<svg width="12" height="12" viewBox="0 0 12 12" fill="none" xmlns="http://www.w3.org/2000/svg">
<path d="M6.02053 0.580734C3.02905 0.580734 0.604126 3.00581 0.604126 5.99729C0.604126 8.98845 3.02905 11.4135 6.02053 11.4135C9.01181 11.4135 11.4369 8.98845 11.4369 5.99729C11.4369 3.00581 9.01181 0.580734 6.02053 0.580734ZM6.02053 10.6477C3.45209 10.6477 1.36997 8.56537 1.36997 5.99725C1.36997 3.42881 3.45205 1.34681 6.02053 1.34681C8.58881 1.34681 10.671 3.42881 10.671 5.99725C10.6709 8.56541 8.58881 10.6477 6.02053 10.6477Z" fill="#50A5F1"/>
<path d="M10.2103 5.99713C10.2103 8.31121 8.33445 10.1869 6.02057 10.1869C3.70649 10.1869 1.83069 8.31117 1.83069 5.99713C1.83069 3.68309 3.70649 1.80737 6.02057 1.80737C8.33441 1.80733 10.2103 3.68309 10.2103 5.99713Z" fill="#50A5F1"/>
<path d="M5.48752 8.45582L3.27856 5.03954V4.99658L5.34816 5.93178L8.7618 3.53842L5.48752 8.45582Z" fill="white"/>
</svg>
